<svg width="40" height="40" viewBox="0 0 40 40" fill="none" xmlns="http://www.w3.org/2000/svg">
<path d="M20 37.5C15.3587 37.5 10.9075 35.6563 7.62563 32.3744C4.34374 29.0925 2.5 24.6413 2.5 20C2.5 15.3587 4.34374 10.9075 7.62563 7.62563C10.9075 4.34374 15.3587 2.5 20 2.5C24.6413 2.5 29.0925 4.34374 32.3744 7.62563C35.6563 10.9075 37.5 15.3587 37.5 20C37.5 24.6413 35.6563 29.0925 32.3744 32.3744C29.0925 35.6563 24.6413 37.5 20 37.5ZM20 40C25.3043 40 30.3914 37.8929 34.1421 34.1421C37.8929 30.3914 40 25.3043 40 20C40 14.6957 37.8929 9.60859 34.1421 5.85786C30.3914 2.10714 25.3043 0 20 0C14.6957 0 9.60859 2.10714 5.85786 5.85786C2.10714 9.60859 0 14.6957 0 20C0 25.3043 2.10714 30.3914 5.85786 34.1421C9.60859 37.8929 14.6957 40 20 40Z" fill="#424874"/>
<path d="M27.4249 12.425C27.4071 12.4422 27.3904 12.4606 27.3749 12.48L18.6924 23.5425L13.4599 18.3075C13.1044 17.9763 12.6343 17.796 12.1486 17.8045C11.6628 17.8131 11.1993 18.0099 10.8558 18.3534C10.5123 18.6969 10.3155 19.1604 10.3069 19.6462C10.2984 20.1319 10.4787 20.602 10.8099 20.9575L17.4249 27.575C17.6031 27.7528 17.8153 27.893 18.0488 27.9871C18.2824 28.0812 18.5325 28.1273 18.7842 28.1226C19.036 28.1179 19.2842 28.0626 19.5141 27.9599C19.744 27.8573 19.9509 27.7093 20.1224 27.525L30.1024 15.05C30.4422 14.6933 30.628 14.2172 30.6196 13.7246C30.6112 13.2321 30.4093 12.7626 30.0575 12.4177C29.7057 12.0728 29.2323 11.8802 28.7397 11.8816C28.2471 11.883 27.7747 12.0781 27.4249 12.425Z" fill="#424874"/>
</svg>
