<svg width="30" height="30" viewBox="0 0 30 30" fill="none" xmlns="http://www.w3.org/2000/svg">
<path d="M15 28.125C11.519 28.125 8.18064 26.7422 5.71922 24.2808C3.25781 21.8194 1.875 18.481 1.875 15C1.875 11.519 3.25781 8.18064 5.71922 5.71922C8.18064 3.25781 11.519 1.875 15 1.875C18.481 1.875 21.8194 3.25781 24.2808 5.71922C26.7422 8.18064 28.125 11.519 28.125 15C28.125 18.481 26.7422 21.8194 24.2808 24.2808C21.8194 26.7422 18.481 28.125 15 28.125ZM15 30C18.9782 30 22.7936 28.4196 25.6066 25.6066C28.4196 22.7936 30 18.9782 30 15C30 11.0218 28.4196 7.20644 25.6066 4.3934C22.7936 1.58035 18.9782 0 15 0C11.0218 0 7.20644 1.58035 4.3934 4.3934C1.58035 7.20644 0 11.0218 0 15C0 18.9782 1.58035 22.7936 4.3934 25.6066C7.20644 28.4196 11.0218 30 15 30Z" fill="#FFEAFE"/>
<path d="M20.5687 9.31891C20.5553 9.33185 20.5428 9.34563 20.5312 9.36016L14.0193 17.657L10.0949 13.7308C9.82832 13.4824 9.47574 13.3472 9.11142 13.3536C8.74711 13.36 8.39951 13.5076 8.14186 13.7652C7.88421 14.0229 7.73663 14.3705 7.7302 14.7348C7.72377 15.0991 7.859 15.4517 8.1074 15.7183L13.0687 20.6814C13.2023 20.8148 13.3615 20.9199 13.5366 20.9905C13.7118 21.0611 13.8994 21.0956 14.0882 21.0921C14.277 21.0886 14.4632 21.0472 14.6356 20.9701C14.808 20.8931 14.9632 20.7822 15.0918 20.6439L22.5768 11.2877C22.8316 11.0202 22.971 10.6631 22.9647 10.2937C22.9584 9.92423 22.807 9.57213 22.5431 9.31346C22.2793 9.0548 21.9243 8.91036 21.5548 8.91138C21.1853 8.9124 20.8311 9.05879 20.5687 9.31891Z" fill="#FFEAFE"/>
</svg>
