<svg width="12" height="12" viewBox="0 0 12 12" fill="none" xmlns="http://www.w3.org/2000/svg">
<path d="M6 0.53125C2.98125 0.53125 0.53125 2.98125 0.53125 6C0.53125 9.01875 2.98125 11.4688 6 11.4688C9.01875 11.4688 11.4688 9.01875 11.4688 6C11.4688 2.98125 9.01875 0.53125 6 0.53125ZM6 10.375C3.59375 10.375 1.625 8.40625 1.625 6C1.625 3.59375 3.59375 1.625 6 1.625C8.40625 1.625 10.375 3.59375 10.375 6C10.375 8.40625 8.40625 10.375 6 10.375Z" fill="#424874"/>
<path d="M4.08765 4.75312C4.28452 4.53437 4.52515 4.35938 4.80952 4.25C5.0939 4.11875 5.37827 4.05313 5.68452 4.05313C6.0564 4.05313 6.42827 4.14062 6.73452 4.3375C7.04077 4.5125 7.32515 4.775 7.52202 5.05938L8.30952 4.46875C8.00327 4.075 7.6314 3.725 7.1939 3.50625C6.73452 3.26563 6.25327 3.15625 5.7064 3.15625C5.2689 3.15625 4.8314 3.24375 4.43765 3.41875C4.0439 3.59375 3.6939 3.83437 3.40952 4.11875C3.12515 4.425 2.88452 4.75313 2.70952 5.16875C2.53452 5.5625 2.44702 6 2.44702 6.4375C2.44702 6.89687 2.53452 7.3125 2.70952 7.70625C2.88452 8.1 3.10327 8.45 3.40952 8.75625C3.6939 9.0625 4.0439 9.28125 4.43765 9.45625C4.8314 9.63125 5.24702 9.71875 5.7064 9.71875C6.25327 9.71875 6.7564 9.60938 7.1939 9.36875C7.6314 9.12813 8.02515 8.8 8.30952 8.40625L7.52202 7.81562C7.32515 8.12187 7.06265 8.3625 6.73452 8.5375C6.4064 8.7125 6.0564 8.8 5.68452 8.8C5.37827 8.8 5.0939 8.73438 4.80952 8.60313C4.54702 8.47188 4.3064 8.29687 4.08765 8.1C3.89077 7.88125 3.71577 7.64063 3.6064 7.35625C3.49702 7.07188 3.4314 6.76562 3.4314 6.4375C3.4314 6.10938 3.49702 5.80312 3.6064 5.51875C3.71577 5.23437 3.89077 4.97187 4.08765 4.75312Z" fill="#424874"/>
</svg>
